<svg id="Suffolk_Libraries_logo" data-name="Suffolk Libraries logo" xmlns="http://www.w3.org/2000/svg" viewBox="0 0 538.58 232.44"><defs><style>.cls-1{fill:#fff;}</style></defs><title>Artboard 1</title><rect class="cls-1" width="538.58" height="232.44"/><polygon points="201.61 213.86 201.61 232.44 217.73 232.44 209.1 213.86 201.61 213.86"/><path d="M341.2,193.31c0-6.21-2.14-8.34-8.34-8.34h-8.75v17.39h8.75C339.16,202.36,341.2,199.62,341.2,193.31Z"/><path d="M155.73,193.31c0-6.21-2.14-8.34-8.34-8.34h-8.75v17.39h8.75C153.7,202.36,155.73,199.62,155.73,193.31Z"/><polygon points="259.78 225.51 258.04 232.44 281.02 232.44 279.25 225.51 259.78 225.51"/><polygon points="324.11 213.86 324.11 232.44 340.23 232.44 331.6 213.86 324.11 213.86"/><polygon points="269.35 186.49 262.59 213.86 276.36 213.86 269.56 186.49 269.35 186.49"/><path d="M218.7,193.31c0-6.21-2.14-8.34-8.34-8.34h-8.75v17.39h8.75C216.67,202.36,218.7,199.62,218.7,193.31Z"/><path d="M157.66,223.32c0-7.33-2.34-9.46-8.75-9.46H138.64v18.58H149C155.13,232.43,157.66,230.06,157.66,223.32Z"/><path d="M294.38,91.84c-7.32,0-10.68,3.77-10.68,13.13v23.7c0,9.56,3.36,13.53,10.68,13.53s10.58-4,10.58-13.53V105C305,95.61,301.71,91.84,294.38,91.84Z"/><path d="M0,0V232.44H37.52V172H54v53.56H78.36v6.93H91.07V172h15.56v60.49h16.75V172h23.5c16.38,0,23.09,8.34,23.09,19.22,0,8-2.44,13.33-9.15,16v.21c8.54,2.34,12.31,8.54,12.31,17.09a15.12,15.12,0,0,1-2.38,8h15.19V172h24.42c16.58,0,23.6,7.74,23.6,19.86,0,9-4,15.58-11.6,18.19l11.81,22.44h8.7L260.81,172h17.7l17.94,60.49h12V172h24.41c16.58,0,23.6,7.74,23.6,19.86,0,9-4,15.58-11.6,18.19l11.82,22.44H371V172h15.56v60.49h16.7V172h42.83v13.42h-27.2v14.11h20.44v11.8H418.89V225.5h27.26v6.94h14.19a50.45,50.45,0,0,1-2.18-6.67l11.69-4.07c1.63,4.94,3.9,9.05,7.13,10.74h8.48c2.62-1.1,3.84-3.28,3.84-6.59,0-14-31.94-11.28-31.94-34.68,0-11.29,8.54-20.24,22.18-20.24,12.41,0,20.14,6.41,23.9,16.17l-10.58,4.68c-2.13-5.8-6.51-8.54-11.8-8.54-6.1,0-8.34,2.74-8.34,7,0,12.2,31.23,11.59,31.23,35a25,25,0,0,1-1,7.19h35.62V0ZM57.06,154.71c-11.4,0-21.47-6.81-24.32-17.7l11.7-4.07c2.14,6.51,7.43,9.56,12.51,9.56,6.21,0,9-2.44,9-7.42C65.91,121,34,122.56,34,99.17c0-11.29,8.55-20.25,22.18-20.25,12.41,0,20.14,6.41,23.91,16.18L69.47,99.78C67.33,94,63,91.23,57.67,91.23c-6.11,0-8.35,2.75-8.35,7,0,12.21,31.23,11.6,31.23,35C80.55,147,71.3,154.71,57.06,154.71ZM143.63,129c0,16-9.47,25.74-26.15,25.74s-26.35-9.46-26.35-25V79.94H106.8v49.85c0,7.93,4.38,11.19,10.68,11.19,6.92,0,10.58-3.46,10.58-11.19V79.94h15.57Zm58.28-35.6H174.35v17.9h23.7v12.41h-23.7v30H158.68V79.94h43.23Zm55.85,0H230.19v17.9H253.9v12.41H230.19v30H214.53V79.94h43.23Zm62.87,35.3c0,15.87-9.26,26-26.25,26s-26.24-10.17-26.24-26V105c0-15.87,9.25-26,26.24-26s26.25,10.1,26.25,26Zm54.32,25H334.46V79.94H351v60.12h24Zm49.6,0-16.27-30.52-5.6,7.94V153.7H387.22V79.94h15.46v34.28l19.84-34.28h17.6L418.35,112.6l23.5,41.09Z"/></svg>